<svg width="17" height="19" viewBox="0 0 17 19" fill="none" xmlns="http://www.w3.org/2000/svg">
<g clip-path="url(#clip0_7_18)">
<path d="M9.40105 11.4198H7.22397L6.80834 12.6667H5.4823L7.73855 6.61041H8.88647L11.1427 12.6667H9.81667L9.40105 11.4198ZM7.56042 10.3906H9.06459L8.31251 8.13437L7.56042 10.3906Z" fill="#0A192F"/>
<path d="M8.59375 0.59375L0.59375 4.99375V13.9938L8.59375 18.5938L16.5938 14.1938V5.19375L8.59375 0.59375Z" fill="#0A192F"/>
<path d="M5.91002 13V6.12519H8.62234C9.14154 6.12519 9.58464 6.21806 9.95165 6.40381C10.3209 6.58732 10.6018 6.84803 10.7942 7.18595C10.9889 7.52164 11.0863 7.91662 11.0863 8.37092C11.0863 8.82745 10.9878 9.2202 10.7909 9.54917C10.5939 9.8759 10.3086 10.1265 9.93487 10.3011C9.56338 10.4757 9.11356 10.5629 8.58542 10.5629H6.76937V9.39475H8.35044C8.62794 9.39475 8.85844 9.35671 9.04195 9.28062C9.22546 9.20453 9.36197 9.0904 9.45148 8.93822C9.54324 8.78605 9.58911 8.59694 9.58911 8.37092C9.58911 8.14265 9.54324 7.95019 9.45148 7.79354C9.36197 7.63689 9.22434 7.51828 9.03859 7.43772C8.85509 7.35491 8.62346 7.31351 8.34373 7.31351H7.36353V13H5.91002ZM9.62268 9.87143L11.3313 13H9.72674L8.05504 9.87143H9.62268Z" fill="#0AFFDA"/>
</g>
<defs>
<clipPath id="clip0_7_18">
<rect width="16.625" height="19" fill="white"/>
</clipPath>
</defs>
</svg>
