<svg xmlns="http://www.w3.org/2000/svg" viewBox="0 0 24 30" x="0px" y="0px"><path d="M18,10.82a1,1,0,0,0-1,1V19a1,1,0,0,1-1,1H5a1,1,0,0,1-1-1V8A1,1,0,0,1,5,7h7.18a1,1,0,0,0,0-2H5A3,3,0,0,0,2,8V19a3,3,0,0,0,3,3H16a3,3,0,0,0,3-3V11.82A1,1,0,0,0,18,10.82Zm3.92-8.2a1,1,0,0,0-.54-.54A1,1,0,0,0,21,2H15a1,1,0,0,0,0,2h3.59L8.29,14.29a1,1,0,0,0,0,1.42,1,1,0,0,0,1.42,0L20,5.41V9a1,1,0,0,0,2,0V3A1,1,0,0,0,21.92,2.62Z"/><text x="0" y="39" fill="#000000" font-size="5px" font-weight="bold" font-family="'Helvetica Neue', Helvetica, Arial-Unicode, Arial, Sans-serif">Created by guntur cahya</text><text x="0" y="44" fill="#000000" font-size="5px" font-weight="bold" font-family="'Helvetica Neue', Helvetica, Arial-Unicode, Arial, Sans-serif">from the Noun Project</text></svg>